<svg width="20" height="20" viewBox="0 0 20 20" fill="none" xmlns="http://www.w3.org/2000/svg">
<path d="M5 19C2.79086 19 1 17.2091 1 15V3C1 1.89543 1.89543 1 3 1H7C8.10457 1 9 1.89543 9 3V15C9 17.2091 7.20914 19 5 19ZM5 19H17C18.1046 19 19 18.1046 19 17V13C19 11.8954 18.1046 11 17 11H14.6569M9.00002 5.34312L10.6569 3.68629C11.4379 2.90524 12.7042 2.90524 13.4853 3.68629L16.3137 6.51472C17.0948 7.29577 17.0948 8.5621 16.3137 9.34315L7.82843 17.8284M5 15H5.01" stroke="white" stroke-width="2" stroke-linecap="round" stroke-linejoin="round"/>
</svg>
