<svg width="20" height="20" viewBox="0 0 20 20" fill="none" xmlns="http://www.w3.org/2000/svg">
<path d="M7.66353 15H12.3365M10 1V2M16.364 3.63604L15.6569 4.34315M19.0001 9.99995H18.0001M2.00006 9.99995H1.00006M4.34315 4.34315L3.63605 3.63604M6.46447 13.5356C4.51185 11.5829 4.51185 8.41711 6.46447 6.46449C8.4171 4.51187 11.5829 4.51187 13.5355 6.46449C15.4882 8.41711 15.4882 11.5829 13.5355 13.5356L12.9884 14.0827C12.3556 14.7155 12 15.5739 12 16.469V17C12 18.1046 11.1046 19 10 19C8.89544 19 8.00001 18.1046 8.00001 17V16.469C8.00001 15.5739 7.64446 14.7155 7.01157 14.0827L6.46447 13.5356Z" stroke="white" stroke-width="2" stroke-linecap="round" stroke-linejoin="round"/>
</svg>
