<svg width="36" height="36" viewBox="0 0 36 36" fill="none" xmlns="http://www.w3.org/2000/svg">
<path fill-rule="evenodd" clip-rule="evenodd" d="M8.44463 17.8633C8.43587 16.7028 8.5144 15.5433 8.67957 14.3946C8.82226 13.5757 9.22763 13.6258 9.5312 13.8052L12.6034 15.8201C12.9237 16.052 13.1841 16.3569 13.3632 16.7094C13.5423 17.062 13.6349 17.4521 13.6333 17.8476V17.9066C13.635 18.302 13.5426 18.692 13.3637 19.0446C13.1847 19.3971 12.9244 19.702 12.6043 19.9341L9.53101 21.9486C9.22745 22.1274 8.82226 22.1781 8.67938 21.3592C8.51421 20.2105 8.43568 19.051 8.44445 17.8905C8.44445 17.8862 8.44445 17.8821 8.44445 17.8779L8.44463 17.8633Z" fill="#0144E4"/>
<path fill-rule="evenodd" clip-rule="evenodd" d="M27.4549 17.8633C27.4637 16.7028 27.3851 15.5433 27.22 14.3946C27.0773 13.5757 26.6719 13.6258 26.3683 13.8052L23.2961 15.8201C22.976 16.0521 22.7157 16.357 22.5367 16.7095C22.3577 17.0621 22.2653 17.4522 22.267 17.8476V17.9066C22.2653 18.302 22.3577 18.6921 22.5367 19.0446C22.7157 19.3972 22.976 19.7021 23.2961 19.9341L26.3685 21.9486C26.6721 22.1274 27.0773 22.1781 27.2201 21.3592C27.3853 20.2105 27.4639 19.051 27.4551 17.8905C27.4551 17.8862 27.4551 17.8821 27.4551 17.8779L27.4549 17.8633Z" fill="#0144E4"/>
<path fill-rule="evenodd" clip-rule="evenodd" d="M13.209 9.63843C14.2095 9.05066 15.2529 8.53897 16.3301 8.10768C17.1107 7.82193 17.2693 8.19824 17.2663 8.55037L17.0578 12.2186C17.017 12.6119 16.8831 12.9898 16.6673 13.321C16.4514 13.6523 16.1598 13.9274 15.8166 14.1236L15.7656 14.1531C15.424 14.3522 15.04 14.4672 14.6451 14.4885C14.2503 14.5098 13.8561 14.4368 13.4951 14.2755L10.2139 12.6221C9.90733 12.4487 9.66077 12.123 10.2986 11.5909C11.2109 10.8732 12.1758 10.2252 13.1852 9.65231L13.1961 9.64593L13.209 9.63843Z" fill="#0144E4"/>
<path fill-rule="evenodd" clip-rule="evenodd" d="M22.7141 26.1019C23.7235 25.5293 24.6883 24.8817 25.6005 24.1644C26.238 23.6314 25.9918 23.3057 25.6853 23.1332L22.4042 21.4779C22.0432 21.3167 21.649 21.2437 21.2542 21.265C20.8594 21.2862 20.4753 21.4012 20.1338 21.6004L20.0828 21.6298C19.7395 21.826 19.4479 22.1011 19.2321 22.4324C19.0162 22.7637 18.8824 23.1415 18.8415 23.5348L18.633 27.2038C18.6298 27.5561 18.7886 27.9324 19.5692 27.6465C20.6465 27.2152 21.6898 26.7035 22.6903 26.1157L22.7012 26.1095L22.7141 26.1019Z" fill="#0144E4"/>
<path fill-rule="evenodd" clip-rule="evenodd" d="M22.6903 9.63843C21.6898 9.05066 20.6465 8.53896 19.5692 8.10768C18.7886 7.82193 18.63 8.19824 18.633 8.55037L18.8415 12.2184C18.8824 12.6117 19.0162 12.9896 19.2321 13.3208C19.4479 13.6521 19.7395 13.9272 20.0828 14.1234L20.1338 14.1529C20.4753 14.352 20.8594 14.467 21.2542 14.4883C21.649 14.5096 22.0432 14.4366 22.4042 14.2753L25.6854 12.6219C25.992 12.4485 26.2386 12.1228 25.6007 11.5907C24.6885 10.8731 23.7236 10.2251 22.7141 9.65231L22.7033 9.64593L22.6903 9.63843Z" fill="#0144E4"/>
<path fill-rule="evenodd" clip-rule="evenodd" d="M13.1852 26.1019C12.1759 25.5293 11.2111 24.8817 10.299 24.1644C9.66151 23.6314 9.9077 23.3057 10.2143 23.1332L13.4955 21.4798C13.8565 21.3185 14.2507 21.2455 14.6455 21.2668C15.0403 21.2881 15.4244 21.4031 15.7659 21.6022L15.8169 21.6317C16.1602 21.8279 16.4518 22.103 16.6676 22.4343C16.8835 22.7655 17.0173 23.1434 17.0582 23.5367L17.2667 27.2047C17.2699 27.5571 17.1111 27.9334 16.3305 27.6474C15.2532 27.2161 14.2099 26.7044 13.2094 26.1167L13.1985 26.1105L13.1852 26.1019Z" fill="#0144E4"/>
<path fill-rule="evenodd" clip-rule="evenodd" d="M17.9615 0.0449982C18.8645 0.0453957 19.7304 0.404288 20.3689 1.0428C21.0074 1.68132 21.3662 2.54721 21.3665 3.45019C21.3662 4.35313 21.0073 5.21897 20.3688 5.85745C19.7303 6.49592 18.8645 6.85479 17.9615 6.85519C17.0586 6.85479 16.1928 6.49592 15.5543 5.85745C14.9158 5.21897 14.5569 4.35313 14.5565 3.45019C14.5569 2.54721 14.9157 1.68132 15.5542 1.0428C16.1927 0.404288 17.0586 0.0453957 17.9615 0.0449982Z" fill="#FABE24"/>
<path fill-rule="evenodd" clip-rule="evenodd" d="M17.9629 28.8997C18.8658 28.9002 19.7316 29.2591 20.3701 29.8975C21.0085 30.536 21.3674 31.4018 21.3679 32.3047C21.3675 33.2077 21.0087 34.0737 20.3702 34.7122C19.7317 35.3507 18.8659 35.7097 17.9629 35.7101C17.0599 35.7097 16.1941 35.3508 15.5557 34.7123C14.9172 34.0739 14.5583 33.208 14.5579 32.3051C14.5582 31.4021 14.917 30.5362 15.5555 29.8977C16.194 29.2591 17.0599 28.9002 17.9629 28.8997Z" fill="#FABE24"/>
<path fill-rule="evenodd" clip-rule="evenodd" d="M30.4562 7.25868C31.3591 7.25913 32.2249 7.61801 32.8634 8.25648C33.5018 8.89494 33.8607 9.76076 33.8612 10.6637C33.8607 11.5666 33.5018 12.4324 32.8634 13.0709C32.2249 13.7094 31.3591 14.0682 30.4562 14.0687C29.5533 14.0682 28.6874 13.7094 28.049 13.0709C27.4105 12.4324 27.0516 11.5666 27.0512 10.6637C27.0516 9.76076 27.4105 8.89494 28.049 8.25648C28.6874 7.61801 29.5533 7.25913 30.4562 7.25868Z" fill="#FABE24"/>
<path fill-rule="evenodd" clip-rule="evenodd" d="M5.4675 21.6861C6.37042 21.6865 7.23624 22.0454 7.8747 22.6839C8.51317 23.3223 8.87205 24.1881 8.8725 25.0911C8.872 25.994 8.5131 26.8597 7.87464 27.4981C7.23618 28.1366 6.37039 28.4954 5.4675 28.4959C4.56457 28.4954 3.69876 28.1365 3.0603 27.4981C2.42183 26.8596 2.06295 25.9938 2.0625 25.0909C2.063 24.188 2.4219 23.3222 3.06036 22.6838C3.69882 22.0454 4.56461 21.6865 5.4675 21.6861Z" fill="#FABE24"/>
<path fill-rule="evenodd" clip-rule="evenodd" d="M5.4675 7.25906C6.37042 7.25951 7.23624 7.61839 7.8747 8.25686C8.51317 8.89532 8.87205 9.76114 8.8725 10.6641C8.87205 11.567 8.51317 12.4328 7.8747 13.0713C7.23624 13.7097 6.37042 14.0686 5.4675 14.0691C4.56457 14.0686 3.69876 13.7097 3.0603 13.0713C2.42183 12.4328 2.06295 11.567 2.0625 10.6641C2.06295 9.76114 2.42183 8.89532 3.0603 8.25686C3.69876 7.61839 4.56457 7.25951 5.4675 7.25906Z" fill="#FABE24"/>
<path fill-rule="evenodd" clip-rule="evenodd" d="M30.4558 21.6861C31.3587 21.6865 32.2246 22.0454 32.863 22.6839C33.5015 23.3223 33.8604 24.1881 33.8608 25.0911C33.8604 25.994 33.5015 26.8598 32.863 27.4983C32.2246 28.1367 31.3587 28.4956 30.4558 28.4961C29.5529 28.4956 28.6871 28.1367 28.0486 27.4983C27.4101 26.8598 27.0513 25.994 27.0508 25.0911C27.0513 24.1881 27.4101 23.3223 28.0486 22.6839C28.6871 22.0454 29.5529 21.6865 30.4558 21.6861Z" fill="#FABE24"/>
</svg>
