<svg width="192" height="192" viewBox="0 0 192 192" fill="none" xmlns="http://www.w3.org/2000/svg">
<path fill-rule="evenodd" clip-rule="evenodd" d="M45.038 95.271C44.9912 89.0816 45.4101 82.8975 46.291 76.771C47.052 72.404 49.214 72.671 50.833 73.628L67.218 84.374C68.9262 85.6109 70.3153 87.2367 71.2705 89.117C72.2257 90.9973 72.7195 93.078 72.711 95.187V95.502C72.72 97.6105 72.227 99.691 71.2727 101.571C70.3184 103.451 68.9303 105.078 67.223 106.315L50.832 117.059C49.213 118.013 47.052 118.283 46.29 113.916C45.4091 107.789 44.9902 101.605 45.037 95.416C45.037 95.393 45.037 95.371 45.037 95.349L45.038 95.271Z" fill="#8B5CF5"/>
<path fill-rule="evenodd" clip-rule="evenodd" d="M146.426 95.271C146.473 89.0816 146.054 82.8975 145.173 76.771C144.412 72.404 142.25 72.671 140.631 73.628L124.246 84.374C122.538 85.6113 121.15 87.2374 120.196 89.1176C119.241 90.9979 118.748 93.0784 118.757 95.187V95.502C118.748 97.6106 119.241 99.6911 120.196 101.571C121.15 103.452 122.538 105.078 124.246 106.315L140.632 117.059C142.251 118.013 144.412 118.283 145.174 113.916C146.055 107.789 146.474 101.605 146.427 95.416C146.427 95.393 146.427 95.371 146.427 95.349L146.426 95.271Z" fill="#8B5CF5"/>
<path fill-rule="evenodd" clip-rule="evenodd" d="M70.448 51.405C75.7841 48.2702 81.3485 45.5412 87.094 43.241C91.257 41.717 92.103 43.724 92.087 45.602L90.975 65.166C90.7571 67.2634 90.0431 69.2787 88.8919 71.0455C87.7408 72.8122 86.1856 74.2795 84.355 75.326L84.083 75.483C82.2613 76.5451 80.2129 77.1583 78.1073 77.2719C76.0017 77.3854 73.8993 76.996 71.974 76.136L54.474 67.318C52.839 66.393 51.524 64.656 54.926 61.818C59.7911 57.9905 64.9373 54.5344 70.321 51.479L70.379 51.445L70.448 51.405Z" fill="#8B5CF5"/>
<path fill-rule="evenodd" clip-rule="evenodd" d="M121.142 139.21C126.525 136.157 131.671 132.702 136.536 128.877C139.936 126.034 138.623 124.297 136.988 123.377L119.489 114.549C117.564 113.689 115.461 113.3 113.356 113.413C111.25 113.527 109.202 114.14 107.38 115.202L107.108 115.359C105.277 116.406 103.722 117.873 102.571 119.64C101.42 121.406 100.706 123.422 100.488 125.519L99.376 145.087C99.359 146.966 100.206 148.973 104.369 147.448C110.114 145.148 115.679 142.419 121.015 139.284L121.073 139.251L121.142 139.21Z" fill="#8B5CF5"/>
<path fill-rule="evenodd" clip-rule="evenodd" d="M121.015 51.405C115.679 48.2702 110.114 45.5412 104.369 43.241C100.206 41.717 99.36 43.724 99.376 45.602L100.488 65.165C100.706 67.2624 101.42 69.2777 102.571 71.0445C103.722 72.8112 105.277 74.2785 107.108 75.325L107.38 75.482C109.202 76.5441 111.25 77.1573 113.356 77.2708C115.461 77.3844 117.564 76.995 119.489 76.135L136.989 67.317C138.624 66.392 139.939 64.655 136.537 61.817C131.672 57.9898 126.526 54.5341 121.142 51.479L121.084 51.445L121.015 51.405Z" fill="#8B5CF5"/>
<path fill-rule="evenodd" clip-rule="evenodd" d="M70.321 139.21C64.9382 136.156 59.7926 132.702 54.928 128.877C51.528 126.034 52.841 124.297 54.476 123.377L71.976 114.559C73.9013 113.699 76.0037 113.31 78.1093 113.423C80.2149 113.537 82.2633 114.15 84.085 115.212L84.357 115.369C86.1876 116.416 87.7428 117.883 88.8939 119.65C90.0451 121.416 90.7591 123.432 90.977 125.529L92.089 145.092C92.106 146.971 91.259 148.978 87.096 147.453C81.3505 145.153 75.7861 142.424 70.45 139.289L70.392 139.256L70.321 139.21Z" fill="#8B5CF5"/>
<path fill-rule="evenodd" clip-rule="evenodd" d="M95.795 0.239998C100.611 0.242118 105.229 2.15621 108.634 5.56163C112.039 8.96705 113.953 13.5851 113.955 18.401C113.953 23.2167 112.039 27.8345 108.634 31.2397C105.229 34.6449 100.611 36.5589 95.795 36.561C90.9793 36.5589 86.3615 34.6449 82.9563 31.2397C79.5511 27.8345 77.6371 23.2167 77.635 18.401C77.6369 13.5851 79.5507 8.96705 82.9559 5.56163C86.3612 2.15621 90.9792 0.242118 95.795 0.239998Z" fill="#FABE24"/>
<path fill-rule="evenodd" clip-rule="evenodd" d="M95.802 154.132C100.618 154.134 105.235 156.048 108.64 159.454C112.046 162.859 113.96 167.476 113.962 172.292C113.96 177.108 112.046 181.726 108.641 185.132C105.236 188.537 100.618 190.452 95.802 190.454C90.9864 190.452 86.3687 188.538 82.9636 185.132C79.5584 181.727 77.6444 177.11 77.642 172.294C77.6439 167.478 79.5577 162.86 82.9629 159.454C86.3681 156.049 90.9861 154.134 95.802 154.132Z" fill="#FABE24"/>
<path fill-rule="evenodd" clip-rule="evenodd" d="M162.433 38.713C167.249 38.7154 171.866 40.6294 175.271 44.0346C178.677 47.4397 180.591 52.0574 180.593 56.873C180.591 61.6886 178.677 66.3063 175.271 69.7114C171.866 73.1166 167.249 75.0306 162.433 75.033C157.617 75.0306 153 73.1166 149.595 69.7114C146.189 66.3063 144.275 61.6886 144.273 56.873C144.275 52.0574 146.189 47.4397 149.595 44.0346C153 40.6294 157.617 38.7154 162.433 38.713Z" fill="#FABE24"/>
<path fill-rule="evenodd" clip-rule="evenodd" d="M29.16 115.659C33.9756 115.661 38.5933 117.575 41.9984 120.981C45.4036 124.386 47.3176 129.003 47.32 133.819C47.3173 138.634 45.4032 143.252 41.9981 146.657C38.593 150.062 33.9754 151.976 29.16 151.978C24.3444 151.976 19.7267 150.062 16.3216 146.656C12.9164 143.251 11.0024 138.634 11 133.818C11.0026 129.003 12.9168 124.385 16.3219 120.98C19.727 117.575 24.3446 115.661 29.16 115.659Z" fill="#FABE24"/>
<path fill-rule="evenodd" clip-rule="evenodd" d="M29.16 38.715C33.9756 38.7174 38.5933 40.6314 41.9984 44.0366C45.4036 47.4417 47.3176 52.0594 47.32 56.875C47.3176 61.6906 45.4036 66.3083 41.9984 69.7134C38.5933 73.1186 33.9756 75.0326 29.16 75.035C24.3444 75.0326 19.7267 73.1186 16.3216 69.7134C12.9164 66.3083 11.0024 61.6906 11 56.875C11.0024 52.0594 12.9164 47.4417 16.3216 44.0366C19.7267 40.6314 24.3444 38.7174 29.16 38.715Z" fill="#FABE24"/>
<path fill-rule="evenodd" clip-rule="evenodd" d="M162.431 115.659C167.247 115.661 171.864 117.575 175.269 120.981C178.675 124.386 180.589 129.003 180.591 133.819C180.589 138.635 178.675 143.252 175.269 146.657C171.864 150.063 167.247 151.977 162.431 151.979C157.615 151.977 152.998 150.063 149.593 146.657C146.187 143.252 144.273 138.635 144.271 133.819C144.273 129.003 146.187 124.386 149.593 120.981C152.998 117.575 157.615 115.661 162.431 115.659Z" fill="#FABE24"/>
</svg>
