<svg width="193" height="26" viewBox="0 0 193 26" fill="none" xmlns="http://www.w3.org/2000/svg">
<path d="M0.76635 24.558C0.522213 24.687 0.428909 24.9895 0.55795 25.2337C0.686991 25.4778 0.989512 25.5711 1.23365 25.442L0.76635 24.558ZM193 25L189.893 20.1339L187.232 25.2578L193 25ZM1.23365 25.442C2.15204 24.9566 3.07384 24.478 3.99899 24.0061L3.54466 23.1153C2.61516 23.5893 1.68904 24.0703 0.76635 24.558L1.23365 25.442ZM9.59125 21.2567C11.4687 20.3678 13.3591 19.5066 15.2621 18.6737L14.8612 17.7576C12.949 18.5945 11.0496 19.4598 9.16331 20.3529L9.59125 21.2567ZM21.0072 16.2606C22.9335 15.4852 24.8718 14.7385 26.822 14.0209L26.4766 13.0824C24.5171 13.8035 22.5693 14.5538 20.6338 15.3329L21.0072 16.2606ZM32.7016 11.9576C34.6702 11.3001 36.6502 10.6721 38.641 10.0738L38.3532 9.11615C36.3526 9.71728 34.363 10.3484 32.3848 11.0091L32.7016 11.9576ZM44.6351 8.37218C46.6392 7.83621 48.6538 7.33033 50.6784 6.85498L50.4498 5.88145C48.4152 6.35915 46.3907 6.86752 44.3767 7.40613L44.6351 8.37218ZM56.7654 5.52428C58.7978 5.11267 60.8396 4.73168 62.8906 4.38176L62.7224 3.396C60.6613 3.74766 58.6093 4.13053 56.5669 4.54418L56.7654 5.52428ZM69.0481 3.42873C71.1009 3.14336 73.1624 2.889 75.2321 2.66611L75.125 1.67186C73.0451 1.89586 70.9734 2.15147 68.9104 2.43826L69.0481 3.42873ZM81.4367 2.0944C83.5023 1.93609 85.5755 1.80905 87.6561 1.71371L87.6103 0.714755C85.5195 0.810568 83.436 0.938231 81.3603 1.09732L81.4367 2.0944ZM93.8843 1.52371C94.9212 1.50792 95.9598 1.5 97 1.5V0.5C95.9547 0.5 94.911 0.507958 93.8691 0.523822L93.8843 1.52371ZM97 1.5C98.0402 1.5 99.0788 1.50792 100.116 1.52371L100.131 0.523822C99.0889 0.507958 98.0453 0.5 97 0.5V1.5ZM106.344 1.71371C108.424 1.80905 110.498 1.93609 112.563 2.0944L112.64 1.09732C110.564 0.938231 108.481 0.810568 106.39 0.714755L106.344 1.71371ZM118.768 2.66611C120.838 2.889 122.899 3.14336 124.952 3.42873L125.09 2.43826C123.027 2.15147 120.955 1.89586 118.875 1.67186L118.768 2.66611ZM131.109 4.38176C133.16 4.73168 135.202 5.11267 137.235 5.52428L137.433 4.54418C135.391 4.13053 133.339 3.74766 131.278 3.396L131.109 4.38176ZM143.322 6.85498C145.346 7.33033 147.361 7.83621 149.365 8.37218L149.623 7.40613C147.609 6.86752 145.585 6.35915 143.55 5.88145L143.322 6.85498ZM155.359 10.0738C157.35 10.6721 159.33 11.3001 161.298 11.9576L161.615 11.0091C159.637 10.3484 157.647 9.71728 155.647 9.11615L155.359 10.0738ZM167.178 14.0209C169.128 14.7385 171.067 15.4852 172.993 16.2606L173.366 15.3329C171.431 14.5538 169.483 13.8035 167.523 13.0824L167.178 14.0209ZM178.738 18.6737C180.641 19.5066 182.531 20.3678 184.409 21.2567L184.837 20.3529C182.95 19.4598 181.051 18.5945 179.139 17.7576L178.738 18.6737ZM0.532701 24.1159C0.0444263 24.374 -0.142182 24.979 0.115901 25.4673C0.373983 25.9556 0.979025 26.1422 1.4673 25.8841L0.532701 24.1159ZM193 25L186.786 15.2678L181.465 25.5156L193 25ZM1.4673 25.8841C2.38355 25.3998 3.30318 24.9223 4.22616 24.4515L3.31749 22.6699C2.38582 23.145 1.45754 23.6271 0.532701 24.1159L1.4673 25.8841ZM9.80522 21.7086C11.6782 20.8218 13.5641 19.9627 15.4626 19.1317L14.6607 17.2996C12.744 18.1385 10.8401 19.0058 8.94934 19.901L9.80522 21.7086ZM21.194 16.7244C23.1155 15.9509 25.0492 15.206 26.9947 14.4901L26.304 12.6131C24.3397 13.336 22.3872 14.0881 20.4471 14.8691L21.194 16.7244ZM32.86 12.4319C34.8238 11.776 36.7989 11.1494 38.7849 10.5527L38.2093 8.6373C36.2039 9.2399 34.2094 9.87258 32.2264 10.5349L32.86 12.4319ZM44.7642 8.8552C46.7635 8.32056 48.7731 7.81592 50.7927 7.34174L50.3355 5.39469C48.2959 5.87356 46.2665 6.38318 44.2475 6.9231L44.7642 8.8552ZM56.8647 6.01433C58.892 5.60374 60.9288 5.22369 62.9747 4.87464L62.6383 2.90313C60.5721 3.25565 58.5151 3.63946 56.4677 4.05413L56.8647 6.01433ZM69.1169 3.92397C71.1647 3.6393 73.2211 3.38558 75.2856 3.16323L75.0714 1.17473C72.9864 1.39928 70.9097 1.65552 68.8415 1.94302L69.1169 3.92397ZM81.4749 2.59294C83.5354 2.43502 85.6035 2.30829 87.6789 2.21318L87.5874 0.21528C85.4915 0.311327 83.4029 0.439303 81.3221 0.598786L81.4749 2.59294ZM93.8919 2.02365C94.9263 2.0079 95.9623 2 97 2V0C95.9522 0 94.906 0.00797689 93.8615 0.0238796L93.8919 2.02365ZM97 2C98.0377 2 99.0737 2.0079 100.108 2.02365L100.139 0.0238796C99.094 0.00797689 98.0478 0 97 0V2ZM106.321 2.21318C108.396 2.30829 110.465 2.43502 112.525 2.59294L112.678 0.598787C110.597 0.439303 108.509 0.311327 106.413 0.215279L106.321 2.21318ZM118.714 3.16323C120.779 3.38558 122.835 3.6393 124.883 3.92397L125.158 1.94302C123.09 1.65552 121.014 1.39928 118.929 1.17473L118.714 3.16323ZM131.025 4.87464C133.071 5.22369 135.108 5.60374 137.135 6.01433L137.532 4.05413C135.485 3.63946 133.428 3.25565 131.362 2.90313L131.025 4.87464ZM143.207 7.34174C145.227 7.81592 147.237 8.32055 149.236 8.8552L149.752 6.9231C147.734 6.38318 145.704 5.87356 143.664 5.39469L143.207 7.34174ZM155.215 10.5527C157.201 11.1494 159.176 11.776 161.14 12.4319L161.774 10.5349C159.791 9.87258 157.796 9.2399 155.791 8.6373L155.215 10.5527ZM167.005 14.4901C168.951 15.206 170.884 15.9509 172.806 16.7244L173.553 14.8691C171.613 14.0881 169.66 13.336 167.696 12.6131L167.005 14.4901ZM178.537 19.1317C180.436 19.9627 182.322 20.8218 184.195 21.7086L185.051 19.901C183.16 19.0058 181.256 18.1384 179.339 17.2996L178.537 19.1317Z" fill="white" fill-opacity="0.1"/>
</svg>
