<svg width="193" height="26" viewBox="0 0 193 26" fill="none" xmlns="http://www.w3.org/2000/svg">
<path d="M0.76635 1.44205C0.522213 1.31301 0.428909 1.01049 0.55795 0.76635C0.686991 0.522213 0.989512 0.428909 1.23365 0.557951L0.76635 1.44205ZM193 1L189.893 5.86612L187.232 0.74221L193 1ZM1.23365 0.557951C2.15204 1.04338 3.07384 1.52204 3.99899 1.99387L3.54466 2.8847C2.61516 2.41065 1.68904 1.92975 0.76635 1.44205L1.23365 0.557951ZM9.59125 4.74327C11.4687 5.63221 13.3591 6.49337 15.2621 7.3263L14.8612 8.2424C12.949 7.40549 11.0496 6.54023 9.16331 5.64707L9.59125 4.74327ZM21.0072 9.73939C22.9335 10.5148 24.8718 11.2615 26.822 11.9791L26.4766 12.9176C24.5171 12.1965 22.5693 11.4462 20.6338 10.6671L21.0072 9.73939ZM32.7016 14.0424C34.6702 14.6999 36.6502 15.3279 38.641 15.9262L38.3532 16.8839C36.3526 16.2827 34.363 15.6516 32.3848 14.9909L32.7016 14.0424ZM44.6351 17.6278C46.6392 18.1638 48.6538 18.6697 50.6784 19.145L50.4498 20.1185C48.4152 19.6409 46.3907 19.1325 44.3767 18.5939L44.6351 17.6278ZM56.7654 20.4757C58.7978 20.8873 60.8396 21.2683 62.8906 21.6182L62.7224 22.604C60.6613 22.2523 58.6093 21.8695 56.5669 21.4558L56.7654 20.4757ZM69.0481 22.5713C71.1009 22.8566 73.1624 23.111 75.2321 23.3339L75.125 24.3281C73.0451 24.1041 70.9734 23.8485 68.9104 23.5617L69.0481 22.5713ZM81.4367 23.9056C83.5023 24.0639 85.5755 24.1909 87.6561 24.2863L87.6103 25.2852C85.5195 25.1894 83.436 25.0618 81.3603 24.9027L81.4367 23.9056ZM93.8843 24.4763C94.9212 24.4921 95.9598 24.5 97 24.5V25.5C95.9547 25.5 94.911 25.492 93.8691 25.4762L93.8843 24.4763ZM97 24.5C98.0402 24.5 99.0788 24.4921 100.116 24.4763L100.131 25.4762C99.0889 25.492 98.0453 25.5 97 25.5V24.5ZM106.344 24.2863C108.424 24.1909 110.498 24.0639 112.563 23.9056L112.64 24.9027C110.564 25.0618 108.481 25.1894 106.39 25.2852L106.344 24.2863ZM118.768 23.3339C120.838 23.111 122.899 22.8566 124.952 22.5713L125.09 23.5617C123.027 23.8485 120.955 24.1041 118.875 24.3281L118.768 23.3339ZM131.109 21.6182C133.16 21.2683 135.202 20.8873 137.235 20.4757L137.433 21.4558C135.391 21.8695 133.339 22.2523 131.278 22.604L131.109 21.6182ZM143.322 19.145C145.346 18.6697 147.361 18.1638 149.365 17.6278L149.623 18.5939C147.609 19.1325 145.585 19.6409 143.55 20.1186L143.322 19.145ZM155.359 15.9262C157.35 15.3279 159.33 14.6999 161.298 14.0424L161.615 14.9909C159.637 15.6516 157.647 16.2827 155.647 16.8839L155.359 15.9262ZM167.178 11.9791C169.128 11.2615 171.067 10.5148 172.993 9.73939L173.366 10.6671C171.431 11.4462 169.483 12.1965 167.523 12.9176L167.178 11.9791ZM178.738 7.32631C180.641 6.49338 182.531 5.63221 184.409 4.74327L184.837 5.64708C182.95 6.54023 181.051 7.40549 179.139 8.2424L178.738 7.32631ZM0.532701 1.8841C0.0444263 1.62602 -0.142182 1.02098 0.115901 0.532701C0.373983 0.044426 0.979025 -0.142181 1.4673 0.1159L0.532701 1.8841ZM193 1L186.786 10.7322L181.465 0.484423L193 1ZM1.4673 0.1159C2.38355 0.600191 3.30318 1.07773 4.22616 1.54845L3.31749 3.33012C2.38582 2.85496 1.45754 2.37293 0.532701 1.8841L1.4673 0.1159ZM9.80522 4.29136C11.6782 5.1782 13.5641 6.03731 15.4626 6.86825L14.6607 8.70044C12.744 7.86155 10.8401 6.99423 8.94934 6.09898L9.80522 4.29136ZM21.194 9.27556C23.1155 10.0491 25.0492 10.794 26.9947 11.5099L26.304 13.3869C24.3397 12.664 22.3872 11.9119 20.4471 11.1309L21.194 9.27556ZM32.86 13.5681C34.8238 14.224 36.7989 14.8506 38.7849 15.4473L38.2093 17.3627C36.2039 16.7601 34.2094 16.1274 32.2264 15.4651L32.86 13.5681ZM44.7642 17.1448C46.7635 17.6794 48.7731 18.1841 50.7927 18.6583L50.3355 20.6053C48.2959 20.1264 46.2665 19.6168 44.2475 19.0769L44.7642 17.1448ZM56.8647 19.9857C58.892 20.3963 60.9288 20.7763 62.9747 21.1254L62.6383 23.0969C60.5721 22.7444 58.5151 22.3605 56.4677 21.9459L56.8647 19.9857ZM69.1169 22.076C71.1647 22.3607 73.2211 22.6144 75.2856 22.8368L75.0714 24.8253C72.9864 24.6007 70.9097 24.3445 68.8415 24.057L69.1169 22.076ZM81.4749 23.4071C83.5354 23.565 85.6035 23.6917 87.6789 23.7868L87.5874 25.7847C85.4915 25.6887 83.4029 25.5607 81.3221 25.4012L81.4749 23.4071ZM93.8919 23.9764C94.9263 23.9921 95.9623 24 97 24V26C95.9522 26 94.906 25.992 93.8615 25.9761L93.8919 23.9764ZM97 24C98.0377 24 99.0737 23.9921 100.108 23.9764L100.139 25.9761C99.094 25.992 98.0478 26 97 26V24ZM106.321 23.7868C108.396 23.6917 110.465 23.565 112.525 23.4071L112.678 25.4012C110.597 25.5607 108.509 25.6887 106.413 25.7847L106.321 23.7868ZM118.714 22.8368C120.779 22.6144 122.835 22.3607 124.883 22.076L125.158 24.057C123.09 24.3445 121.014 24.6007 118.929 24.8253L118.714 22.8368ZM131.025 21.1254C133.071 20.7763 135.108 20.3963 137.135 19.9857L137.532 21.9459C135.485 22.3605 133.428 22.7444 131.362 23.0969L131.025 21.1254ZM143.207 18.6583C145.227 18.1841 147.237 17.6794 149.236 17.1448L149.752 19.0769C147.734 19.6168 145.704 20.1264 143.664 20.6053L143.207 18.6583ZM155.215 15.4473C157.201 14.8506 159.176 14.224 161.14 13.5681L161.774 15.4651C159.791 16.1274 157.796 16.7601 155.791 17.3627L155.215 15.4473ZM167.005 11.5099C168.951 10.794 170.884 10.0491 172.806 9.27556L173.553 11.1309C171.613 11.9119 169.66 12.664 167.696 13.3869L167.005 11.5099ZM178.537 6.86826C180.436 6.03732 182.322 5.1782 184.195 4.29137L185.051 6.09898C183.16 6.99424 181.256 7.86155 179.339 8.70045L178.537 6.86826Z" fill="white" fill-opacity="0.1"/>
</svg>
