<svg width="320" height="13" viewBox="0 0 320 13" fill="none" xmlns="http://www.w3.org/2000/svg">
<path d="M6.94283 6.5101C9.44824 6.5101 12.073 6.44228 14.5784 6.37447C15.6521 6.37447 16.6066 6.30666 17.6803 6.30666C22.2139 6.17103 26.7475 6.0354 31.2811 5.89978C36.7692 5.76415 42.1379 5.56071 47.6259 5.42508C55.3808 5.15383 63.1356 4.95039 70.8905 4.67913C72.6801 4.61132 74.4697 4.61132 76.2592 4.54351C80.7928 4.40788 85.3264 4.27225 89.86 4.20444C94.3936 4.06881 98.9272 3.93318 103.461 3.86537C105.25 3.79756 107.04 3.72974 108.83 3.72974C115.988 3.59412 123.266 3.45849 130.424 3.32286C134.838 3.25505 139.252 3.18723 143.786 3.05161C145.576 3.05161 147.246 2.98379 149.035 2.98379C155.955 2.91598 162.994 2.84817 169.914 2.78035C176.834 2.71254 183.634 2.64473 190.554 2.57691C192.343 2.57691 194.133 2.57691 196.042 2.57691C200.575 2.57691 204.99 2.57691 209.523 2.57691C216.562 2.57691 223.482 2.57691 230.521 2.5091C232.788 2.5091 235.055 2.5091 237.321 2.5091C242.094 2.5091 246.866 2.5091 251.638 2.5091C251.996 2.5091 252.473 2.5091 252.831 2.5091C242.094 2.57691 231.237 2.64473 220.499 2.78035C215.966 2.84817 211.551 2.84817 207.018 2.91598C205.109 2.91598 203.081 2.91598 201.172 2.98379C194.61 3.05161 188.168 3.18723 181.606 3.25505C174.09 3.39068 166.573 3.45849 159.057 3.59412C157.745 3.59412 156.552 3.66193 155.239 3.66193C151.183 3.79756 147.246 3.86537 143.19 4.001C135.077 4.20444 126.964 4.40788 118.851 4.61132C117.658 4.61132 116.465 4.67913 115.272 4.74695C111.335 4.88257 107.279 5.08601 103.342 5.22164C96.1832 5.49289 89.1442 5.76415 81.9859 6.0354C80.077 6.10322 78.0488 6.23884 76.1399 6.30666C71.6063 6.5101 67.0727 6.71354 62.5391 6.98479C56.8125 7.25605 50.9665 7.5273 45.2398 7.79855C37.2464 8.20543 29.1336 8.61232 21.1402 9.0192C19.2313 9.08701 17.3224 9.22264 15.2942 9.29045C11.8344 9.49389 8.3745 9.69733 4.91464 9.90077C4.55673 9.90077 4.19881 10.0364 4.19881 10.3077C4.19881 10.5111 4.55673 10.7145 4.91464 10.7145C6.227 10.7145 7.42005 10.7823 8.73241 10.7823C8.4938 11.1214 8.3745 11.3249 8.3745 11.5283C8.3745 12.2742 9.44824 12.9524 10.8799 12.9524C20.7822 12.6133 30.5653 12.2064 40.4676 11.9352C49.0576 11.7317 57.6476 11.4605 66.2376 11.257C75.6627 10.9858 85.2071 10.7145 94.6322 10.5111C97.6149 10.4433 100.598 10.3755 103.58 10.2398C104.415 10.2398 105.25 10.172 106.205 10.172C121.476 9.96859 136.747 9.69733 152.018 9.49389C160.131 9.35826 168.363 9.22264 176.476 9.15482C179.458 9.08701 182.322 9.08701 185.304 9.0192C200.933 8.88357 216.562 8.74794 232.191 8.61232C238.872 8.5445 245.553 8.47669 252.235 8.40887C257.961 8.34106 263.688 8.34106 269.415 8.20543C274.187 8.13762 278.84 8.00199 283.612 7.93418C285.998 7.86637 288.384 7.86637 290.651 7.79855C296.02 7.59511 301.388 7.39167 306.757 7.18823C306.399 7.45949 306.399 7.86637 306.518 8.13762C306.638 8.47669 306.996 8.74794 307.592 8.88357C308.069 9.0192 308.785 9.15482 309.263 9.0192C310.456 8.74794 311.649 8.47669 312.722 8.20543C312.722 8.20543 312.722 8.20543 312.603 8.20543C312.722 8.20543 312.722 8.13762 312.842 8.13762C312.961 8.13762 313.08 8.06981 313.08 8.06981H312.961C313.557 7.93418 314.154 7.79855 314.87 7.59511C315.466 7.45949 316.182 7.25605 316.779 7.12042C317.495 6.91698 318.091 6.71354 318.807 6.5101C319.523 6.30666 320 5.76415 320 5.28945C320 5.0182 319.881 4.81476 319.642 4.54351C319.403 4.27225 318.807 3.93318 318.21 3.86537C317.614 3.79756 317.017 3.72974 316.421 3.72974C316.302 3.72974 316.182 3.72974 316.063 3.72974C315.705 3.72974 315.228 3.72974 314.87 3.79756C313.915 3.86537 313.08 3.93318 312.126 3.93318C311.41 3.93318 310.694 4.001 309.859 4.001C307.831 4.06881 305.922 4.13662 303.894 4.27225C303.417 4.27225 302.82 4.34006 302.343 4.34006C302.581 4.20444 302.701 4.06881 302.701 3.93318C302.82 3.79756 302.82 3.66193 302.82 3.5263C302.82 3.45849 302.82 3.32286 302.939 3.25505C302.939 3.11942 302.939 2.98379 302.82 2.91598C302.82 2.91598 302.939 2.91598 302.939 2.84817C303.297 2.71254 303.655 2.57691 303.894 2.30566C304.132 2.10222 304.252 1.83096 304.252 1.55971C304.252 1.28846 304.132 1.08502 303.894 0.813762C303.774 0.745949 303.655 0.610322 303.536 0.542508C303.178 0.339068 302.82 0.271254 302.462 0.203441C301.746 0.0678135 300.911 0 300.076 0C299.36 0 298.764 0 298.048 0C297.093 0 296.139 0 295.184 0C293.872 0 292.44 0 291.128 0C287.549 0 283.97 0 280.391 0C277.05 0 273.59 0 270.25 0C267.148 0 264.165 0 261.063 0C248.775 0 236.606 0.0678135 224.317 0.135627C215.131 0.203441 205.944 0.271254 196.758 0.271254C192.701 0.271254 188.526 0.339068 184.469 0.406881C175.283 0.542508 166.096 0.610322 156.91 0.745949C154.285 0.745949 151.66 0.813762 149.035 0.813762C147.484 0.813762 146.053 0.881576 144.502 0.881576C135.435 1.08502 126.367 1.28846 117.3 1.4919C114.556 1.55971 111.812 1.62752 108.949 1.69534C107.398 1.69534 105.847 1.76315 104.296 1.83096C95.2288 2.10222 86.2809 2.37347 77.2137 2.64473C72.5608 2.78035 67.9079 2.91598 63.2549 3.11942C55.2615 3.39068 47.268 3.66193 39.3939 4.001C32.4742 4.27225 25.5545 4.47569 18.6348 4.67913C17.561 4.74695 16.4873 4.74695 15.2942 4.81476C13.5046 4.88257 11.715 4.88257 9.92547 4.95039C8.3745 5.22164 6.70422 5.22164 5.15325 5.22164C5.03395 4.95039 4.55673 4.74695 4.19881 4.81476C3.12506 4.81476 2.17062 4.88257 1.09687 4.95039C0.61965 5.0182 0.142428 5.15383 0.0231231 5.42508C-0.0961822 5.76415 0.261734 6.10322 0.738955 6.17103C1.21618 6.23884 1.6934 6.30666 2.17062 6.37447C2.64784 6.44228 3.00576 6.44228 3.48298 6.44228C4.67603 6.5101 5.74978 6.5101 6.94283 6.5101ZM286.117 4.34006C287.549 4.34006 289.1 4.34006 290.532 4.34006C290.651 4.5435 290.889 4.67913 291.128 4.81476C290.532 4.81476 289.935 4.88257 289.458 4.88257C288.384 4.88257 287.31 4.95039 286.237 4.95039C281.464 5.0182 276.811 5.15383 272.039 5.22164C269.892 5.28945 267.744 5.35727 265.597 5.35727C262.256 5.35727 258.796 5.42508 255.456 5.42508C247.701 5.49289 240.065 5.56071 232.311 5.62852C217.278 5.76415 202.365 5.89978 187.332 6.0354C176.595 6.10322 165.858 6.30666 155.12 6.5101C139.014 6.78135 122.788 6.98479 106.682 7.25605C103.461 7.32386 100.24 7.39167 97.0183 7.5273C87.8318 7.79855 78.6453 8.00199 69.4588 8.27325C60.5109 8.5445 51.4437 8.74794 42.4958 9.0192C41.6607 9.0192 40.8255 9.08701 39.9904 9.08701C42.3765 8.95138 44.8819 8.88357 47.268 8.74794C55.7387 8.40887 64.2094 8.00199 72.6801 7.66293C75.6627 7.5273 78.6453 7.39167 81.5087 7.25605C83.0596 7.18823 84.6106 7.12042 86.0423 7.12042C94.9902 6.84916 103.819 6.5101 112.647 6.23884C114.318 6.17103 116.107 6.10322 117.777 6.0354C120.283 5.96759 122.788 5.89978 125.174 5.89978C134.242 5.69633 143.309 5.49289 152.376 5.28945C154.404 5.22164 156.432 5.22164 158.341 5.15383C158.818 5.15383 159.415 5.15383 159.892 5.15383C161.324 5.15383 162.756 5.15383 164.068 5.08601C173.135 4.95039 182.322 4.88257 191.389 4.74695C195.565 4.67913 199.74 4.61132 203.916 4.61132C217.397 4.54351 230.998 4.47569 244.48 4.40788C258.558 4.40788 272.397 4.34006 286.117 4.34006Z" fill="#F59E0B"/>
</svg>
